<svg xmlns="http://www.w3.org/2000/svg" width="40" height="40" viewBox="0 0 40 40">
    <g fill="none" fill-rule="evenodd">
        <g>
            <g>
                <g>
                    <path fill="#000" d="M0 0H40V40H0z" transform="translate(-1821 -864) translate(1821 580) translate(0 284)"/>
                    <g fill="#FFF" fill-rule="nonzero">
                        <path d="M9.88 0.26H11.31V2.34H9.88z" transform="translate(-1821 -864) translate(1821 580) translate(0 284) translate(9 8)"/>
                        <path d="M12.43 1.806H14.51V3.2359999999999998H12.43z" transform="translate(-1821 -864) translate(1821 580) translate(0 284) translate(9 8) rotate(-45.008 13.47 2.52)"/>
                        <path d="M6.9 1.56H8.33V3.64H6.9z" transform="translate(-1821 -864) translate(1821 580) translate(0 284) translate(9 8) rotate(-45 7.615 2.6)"/>
                        <path d="M4.81 13.13c-.65 0-1.17.52-1.17 1.17 0 .65.52 1.17 1.17 1.17.65 0 1.17-.52 1.17-1.17 0-.65-.52-1.17-1.17-1.17zM16.51 13.13c-.65 0-1.17.52-1.17 1.17 0 .65.52 1.17 1.17 1.17.65 0 1.17-.52 1.17-1.17 0-.65-.52-1.17-1.17-1.17z" transform="translate(-1821 -864) translate(1821 580) translate(0 284) translate(9 8)"/>
                        <path d="M20.02 11.96h-.52l-1.04-4.81c-.39-1.3-1.56-2.21-2.86-2.21h-3.77v-1.3H9.36v1.3H5.85c-1.43 0-2.6.91-2.86 2.21l-1.04 4.81H1.3c-.65 0-1.17.52-1.17 1.17 0 .65.52 1.17 1.17 1.17v9.36h4.68v-2.73h9.36v2.73h4.68V14.3c.65 0 1.17-.52 1.17-1.17 0-.65-.52-1.17-1.17-1.17zM4.68 20.93v1.43H2.6v-1.43h2.08zm14.04 1.43h-2.08v-1.43h2.08v1.43zm0-2.73H2.6v-4.94l1.56-7.15c.26-.78.91-1.3 1.69-1.17h9.62c.78 0 1.43.52 1.69 1.17l1.56 7.15v4.94z" transform="translate(-1821 -864) translate(1821 580) translate(0 284) translate(9 8)"/>
                    </g>
                </g>
            </g>
        </g>
    </g>
</svg>
