<svg xmlns="http://www.w3.org/2000/svg" width="40" height="40" viewBox="0 0 40 40">
    <g fill="none" fill-rule="evenodd">
        <g>
            <g>
                <g>
                    <path fill="#000" d="M0 0H40V40H0z" transform="translate(-2319 -864) translate(1821 580) translate(498 284)"/>
                    <g fill="#FFF" fill-rule="nonzero">
                        <path d="M13.7 5.4l2.6-.9L18 1.6 16.6.2 13.7 2l-.9 2.6-6.6 6.6L5.1 10l-5 5 3.2 3.2 5-5L7.1 12l6.6-6.6zm.9-2.7l1.8-1.2.3.3-1.2 1.8-1.3.4.4-1.3zM3.3 16.5L1.7 15l3.4-3.4 1.6 1.6-3.4 3.3z" transform="translate(-2319 -864) translate(1821 580) translate(498 284) translate(11 11)"/>
                        <path d="M4.5 9.1c.4 0 .8-.1 1.2-.2l.7.7.8-.8c-.1 0-1.2-1.2-1.1-1.1C5 8 3.6 8.5 2.2 7c-.7-.7-1-1.6-1-2.6.1.2 2.7 2.8 2.6 2.6.1-.1 3.3-3.2 3.2-3.1L4.4 1.3c.9-.1 1.9.3 2.6 1 1.6 1.6.7 3.7.7 3.9l1.1 1.1.8-.8-.7-.7c.4-1.5 0-3.2-1.2-4.3C6.8.6 5.7.2 4.5.2 3.8.2 3 .4 2.3.8l3.1 3.1-1.6 1.5-3.1-3c-1 1.7-.8 4 .7 5.5.9.8 2 1.2 3.1 1.2zM11.8 8.7L11 9.5 16.5 15 14.9 16.6 9.4 11.1 8.6 11.9 14.9 18.1 18.1 15z" transform="translate(-2319 -864) translate(1821 580) translate(498 284) translate(11 11)"/>
                    </g>
                </g>
            </g>
        </g>
    </g>
</svg>
