<svg xmlns="http://www.w3.org/2000/svg" xmlns:xlink="http://www.w3.org/1999/xlink" width="107" height="24" viewBox="0 0 107 24">
    <defs>
        <path id="1ilkwl5tya" d="M0.186 0.091L13.065 0.091 13.065 15.668 0.186 15.668z"/>
        <path id="rb762ep88c" d="M0 0.076L15.812 0.076 15.812 15.816 0 15.816z"/>
    </defs>
    <g fill="none" fill-rule="evenodd">
        <g>
            <g>
                <g>
                    <g transform="translate(-51 -1822) translate(51 1805) translate(0 17) translate(93.732)">
                        <mask id="p6kk7f0ngb" fill="#fff">
                            <use xlink:href="#1ilkwl5tya"/>
                        </mask>
                        <path fill="#D52B1E" d="M10.588.128c.825-.052 1.65-.036 2.477-.03C10.586 5.264 8.2 10.472 5.77 15.662c-.672.01-1.343.008-2.013-.006C2.64 13.043 1.35 10.502.187 7.91c.804-.016 1.61-.024 2.414-.002.698 1.598 1.519 3.14 2.159 4.762C6.706 8.49 8.71 4.337 10.588.128" mask="url(#p6kk7f0ngb)"/>
                    </g>
                    <path fill="#000" d="M42.39 2.143c1.563.016 3.127.012 4.69.002-.023 1.428-.014 2.856-.01 4.284-1.565-.024-3.133-.004-4.698-.012.022-1.424-.004-2.85.017-4.274M21.025 10.977c-1.065.504-1.592 1.643-1.825 2.73 2.126-.01 4.252-.008 6.378 0-.137-.845-.426-1.717-1.083-2.31-.91-.869-2.363-.894-3.47-.42m-2.544-2.674c3.257-1.828 7.987-1.201 10.189 1.95 1.35 1.864 1.732 4.23 1.718 6.477-3.739.031-7.478-.004-11.216.017.171 1.145.669 2.348 1.736 2.94 1.513.875 3.906.627 4.67-1.114 1.533-.05 3.07-.037 4.605.004-.484 1.749-1.758 3.218-3.379 4.043-1.744.942-3.822 1.129-5.759.804-2.034-.323-3.943-1.464-5.094-3.169-1.25-1.804-1.595-4.102-1.3-6.24.306-2.346 1.716-4.566 3.83-5.712M68.743 11.375c-1.368.467-1.994 1.922-2.194 3.223-.159 1.64-.137 3.485.955 4.843 1.162 1.483 3.732 1.441 4.898-.015.977-1.187 1.112-2.802 1.02-4.266-.075-1.288-.522-2.674-1.632-3.456-.88-.588-2.056-.68-3.047-.33m-.554-3.504c2.598-.458 5.476.077 7.47 1.845 3.41 2.96 3.555 8.711.393 11.895-2.498 2.55-6.697 3.028-9.907 1.585-2.484-1.096-4.174-3.58-4.464-6.206-.12-1.52-.054-3.1.597-4.512.97-2.413 3.315-4.181 5.91-4.607M85.534 8.395c1.548-1.268 3.769-1.402 5.56-.64 1.277.567 2.242 1.742 2.677 3.1.502 1.39.354 2.898.373 4.35.01 2.782-.019 5.563.016 8.344-1.56.03-3.12-.004-4.681.016-.006-3.184.002-6.37-.004-9.553-.004-.828-.295-1.711-.96-2.214-.991-.709-2.458-.57-3.311.314-.672.707-.975 1.726-.96 2.704-.005 2.92.008 5.837-.005 8.755-1.541-.03-3.084 0-4.625-.014 0-5.26.011-10.521-.006-15.782 1.506.016 3.013-.018 4.521.02-.017.727-.023 1.453-.037 2.18.467-.54.866-1.153 1.442-1.58" transform="translate(-51 -1822) translate(51 1805) translate(0 17)"/>
                    <g transform="translate(-51 -1822) translate(51 1805) translate(0 17) translate(0 7.714)">
                        <mask id="owqjqinlvd" fill="#fff">
                            <use xlink:href="#rb762ep88c"/>
                        </mask>
                        <path fill="#000" d="M0 .082c1.648-.008 3.293-.008 4.939 0 .988 3.38 2.057 6.737 2.999 10.129C9.08 6.878 9.963 3.451 11.03.091c1.594-.027 3.188-.009 4.782-.013-1.82 5.232-3.607 10.476-5.396 15.718-1.652.01-3.303-.022-4.953.02C3.587 10.593 1.91 5.294 0 .082" mask="url(#owqjqinlvd)"/>
                    </g>
                    <path fill="#000" d="M31.672 7.843c1.532-.009 3.067.002 4.601-.007-.014.882-.004 1.766-.048 2.648.403-.442.681-.98 1.096-1.415 1.036-1.138 2.719-1.612 4.195-1.218-.014 1.384-.014 2.766 0 4.15-1.184-.138-2.486-.086-3.49.637-1.071.758-1.55 2.127-1.536 3.406-.012 2.505-.004 5.01-.002 7.516-1.607.01-3.211-.013-4.816.011.018-5.242.018-10.486 0-15.728M42.372 8.155c1.57-.022 3.139.002 4.708-.012-.027 5.141-.01 10.285-.01 15.428-1.565-.013-3.133-.008-4.698-.003.016-5.138.016-10.276 0-15.413M48.368 8.143c4.306.02 8.611-.004 12.917.014-.044 1.177.002 2.354-.02 3.53-.147.297-.409.519-.617.772-2.218 2.445-4.383 4.937-6.617 7.37 2.533.05 5.067.006 7.601.024-.006 1.24.002 2.478-.006 3.718-4.419-.02-8.837-.017-13.256 0-.006-1.19.006-2.383-.006-3.574 2.308-2.587 4.623-5.168 6.962-7.728.068-.134.35-.263.205-.435-2.381.07-4.766 0-7.147.037-.026-1.242-.01-2.486-.016-3.728" transform="translate(-51 -1822) translate(51 1805) translate(0 17)"/>
                </g>
            </g>
        </g>
    </g>
</svg>
